<svg xmlns="http://www.w3.org/2000/svg" viewBox="0 0 315.82 298"><defs><style>.cls-1{fill:#fff;}</style></defs><title>icono-recuadro</title><g id="Capa_2" data-name="Capa 2"><g id="Icono"><g id="icono-recuadro"><rect id="Fondo" width="315.82" height="298" rx="45.14"/><g id="Logo"><path class="cls-1" d="M236.81,147a79.9,79.9,0,0,1-130.66,61.69c10.08-5.85,20.42-12.07,30.72-18.44l.55.25A47.46,47.46,0,0,0,203.77,147v0c0-.2,0-.39,0-.59,10.5-7.29,20.54-14.47,30-21.45A80.06,80.06,0,0,1,236.81,147Z"/><path class="cls-1" d="M227.42,109.4l-1.16.94-2.88,2.31c-.82-1.52-4.42-7.44-5.42-8.86A75.86,75.86,0,0,0,207.7,92.11,74.8,74.8,0,0,0,86.34,171.79a82.77,82.77,0,0,0,6.62,14,86.94,86.94,0,0,0,5.66,8.46,19.49,19.49,0,0,1-1.85,1.31,18.53,18.53,0,0,1-2.34,1.23,76.91,76.91,0,0,1-5.84-8.34,78.59,78.59,0,0,1-7.07-15,79.91,79.91,0,0,1,145.9-64.08Z"/><path class="cls-1" d="M236.09,117.42c-19.64,14.7-42.73,30.9-67.82,47.36-24.89,16.34-48.76,31-69.92,43.12-45.74,26.19-78.93,40.55-82.85,34.6s22.17-30.42,63.94-61.71c1,2.24,2,4.43,3.22,6.55C66.16,201,57,211,58.94,214s15-1.54,34.33-11.4c19.19-9.78,44.63-24.74,71.84-42.61,27.45-18,51.48-35.57,68.09-49.34S258.86,87,256.88,84,242.31,85.42,223.46,95C222,93,220.37,91.18,218.7,89.4c45.1-25.74,77.74-39.8,81.62-33.9S278,86,236.09,117.42Z"/><path class="cls-1" d="M200.41,129.45c-11.67,8.48-24.58,17.37-38.1,26.25S135.23,173,122.69,180.45a47.44,47.44,0,1,1,77.72-51Z"/></g></g></g></g></svg>