<svg width="44" height="44" viewBox="0 0 44 44" fill="none" xmlns="http://www.w3.org/2000/svg">
<rect width="44" height="44" rx="22" fill="#545454"/>
<path d="M32.7333 27.1H11.2667C10.5671 27.1 10 27.823 10 28.715V28.885C10 29.7769 10.5671 30.5 11.2667 30.5H32.7333C33.4329 30.5 34 29.7769 34 28.885V28.715C34 27.823 33.4329 27.1 32.7333 27.1Z" fill="white"/>
<path d="M32.7333 20.2999L11.2667 20.2999C10.5671 20.2999 10 21.023 10 21.9149V22.0849C10 22.9769 10.5671 23.6999 11.2667 23.6999L32.7333 23.6999C33.4329 23.6999 34 22.9769 34 22.0849V21.9149C34 21.023 33.4329 20.2999 32.7333 20.2999Z" fill="white"/>
<path d="M32.7331 20.3H11.2664C10.5669 20.3 9.99976 21.0231 9.99976 21.915V22.085C9.99976 22.977 10.5669 23.7 11.2664 23.7H32.7331C33.4326 23.7 33.9998 22.977 33.9998 22.085V21.915C33.9998 21.0231 33.4326 20.3 32.7331 20.3Z" fill="white"/>
<path d="M32.7333 13.5H11.2667C10.5671 13.5 10 14.2231 10 15.115V15.285C10 16.1769 10.5671 16.9 11.2667 16.9H32.7333C33.4329 16.9 34 16.1769 34 15.285V15.115C34 14.2231 33.4329 13.5 32.7333 13.5Z" fill="white"/>
</svg>
