<svg width="405" height="50" viewBox="0 0 405 50" fill="none" xmlns="http://www.w3.org/2000/svg">
<path d="M90.6994 39.1655L85.2402 32.1941H86.1094C86.1855 32.1941 86.2489 32.1941 86.3124 32.1941C86.5509 32.1935 86.7888 32.1716 87.0229 32.1285C87.3127 32.0721 87.5971 31.9932 87.873 31.8927C88.3378 31.724 88.7746 31.4939 89.1704 31.2093C89.5607 30.9297 89.9022 30.5944 90.1823 30.2155C90.6072 29.6403 90.8901 28.983 91.0105 28.2918C91.1308 27.6005 91.0855 26.8927 90.8779 26.22C90.6702 25.5473 90.3055 24.9267 89.8104 24.4036C89.3152 23.8805 88.7021 23.468 88.0158 23.1964C87.3965 22.9515 86.7304 22.8286 86.0586 22.8353H81.0721V39.1655H78.509V20.421H86.0364C87.0561 20.4154 88.0663 20.6053 89.0055 20.979C90.8196 21.6908 92.2616 23.0475 93.0182 24.7542C93.4139 25.6309 93.6158 26.5742 93.6113 27.5266C93.6123 28.2092 93.5054 28.8881 93.2941 29.5411C93.089 30.1788 92.7923 30.7873 92.4123 31.3496C91.7284 32.3702 90.7755 33.207 89.6462 33.7788L93.9222 39.1506L90.6994 39.1655Z" fill="white"/>
<path d="M97.7954 39.1655V20.4209H105.348C106.035 20.419 106.714 20.5511 107.343 20.8089C108.569 21.3057 109.546 22.2251 110.075 23.3784C110.349 23.9716 110.489 24.6117 110.487 25.2585C110.49 25.7417 110.41 26.2223 110.252 26.682C111.027 27.319 111.664 28.0913 112.127 28.9561C112.642 29.9194 112.907 30.9843 112.898 32.0628C112.901 33.9486 112.108 35.7583 110.693 37.0943C110.003 37.7394 109.188 38.254 108.292 38.6104C107.361 38.9817 106.359 39.1706 105.348 39.1655H97.7954ZM105.348 36.7541C106.017 36.7581 106.679 36.6353 107.296 36.393C107.887 36.1567 108.426 35.8164 108.882 35.3903C109.717 34.6076 110.23 33.5708 110.328 32.4653C110.425 31.3598 110.102 30.2577 109.415 29.356C109.119 28.9724 108.767 28.6307 108.368 28.3413C107.965 28.0477 107.517 27.8132 107.039 27.646L106.522 27.4639L106.953 27.1357C107.249 26.9113 107.491 26.6306 107.664 26.312C107.839 25.9855 107.927 25.624 107.921 25.2585C107.923 24.9372 107.854 24.6191 107.718 24.3244C107.45 23.7395 106.959 23.2708 106.341 23.0113C106.029 22.8845 105.692 22.8204 105.351 22.8233H100.362V36.7422L105.348 36.7541Z" fill="white"/>
<path d="M117.088 39.1655V36.7541H123.356V22.8353H117.088V20.4239H132.19V22.8353H125.919V36.7541H132.19V39.1655H117.088Z" fill="white"/>
<path d="M142.645 39.1655V22.8353H136.377V20.4239H151.477V22.8353H145.209V39.1655H142.645Z" fill="white"/>
<path d="M168.159 39.1655L168.079 38.9745C167.821 38.3378 167.54 37.6335 167.236 36.8616C166.953 36.1513 166.658 35.4052 166.347 34.6293H160.082C159.774 35.3933 159.479 36.1304 159.197 36.8407L158.278 39.1655H155.527L163.22 19.8718L170.912 39.1655H168.159ZM165.408 32.1941L164.774 30.6154C164.517 29.9708 164.27 29.365 164.038 28.789C164.038 28.789 163.267 26.891 163.21 26.7417L163.026 27.1894C162.836 27.6669 162.626 28.1891 162.392 28.7621C162.157 29.3351 161.925 29.9559 161.668 30.6005C161.457 31.1237 161.246 31.6549 161.034 32.1941H165.408Z" fill="white"/>
<path d="M174.956 39.1655V20.4239H177.519V36.7541H190.055V39.1655H174.956Z" fill="white"/>
<path d="M215.791 39.1655V20.4239H230.893V22.8353H218.354V28.589H228.482V31.0004H218.354V36.7541H230.893V39.1655H215.791Z" fill="white"/>
<path d="M247.423 39.1655L242.633 32.0538L237.862 39.1655H234.823L241.123 29.7947L234.823 20.4239H237.84L242.63 27.5356L247.423 20.4239H250.439L244.139 29.7947L250.439 39.1655H247.423Z" fill="white"/>
<path d="M254.369 39.1655V20.421H261.897C262.916 20.4154 263.927 20.6053 264.866 20.979C266.678 21.6932 268.119 23.0491 268.879 24.7542C269.467 26.0594 269.627 27.5004 269.337 28.8917C269.048 30.283 268.322 31.561 267.254 32.5612C266.558 33.2043 265.739 33.7177 264.84 34.0742C263.91 34.4465 262.908 34.6364 261.897 34.6323H256.932V39.1685L254.369 39.1655ZM261.897 32.218C263.221 32.2224 264.493 31.7319 265.434 30.8542C265.889 30.4244 266.255 29.9183 266.512 29.362C266.778 28.7848 266.913 28.1617 266.909 27.5326C266.912 26.9104 266.776 26.2945 266.512 25.7241C265.996 24.5928 265.036 23.6925 263.832 23.2113C263.22 22.9656 262.562 22.8397 261.897 22.8412H256.932V32.224L261.897 32.218Z" fill="white"/>
<path d="M273.659 39.1655V20.4239H288.758V22.8353H276.222V28.589H286.347V31.0004H276.222V36.7541H288.758V39.1655H273.659Z" fill="white"/>
<path d="M305.135 39.1655L299.676 32.1941H300.545C300.625 32.1941 300.685 32.1941 300.748 32.1941C300.987 32.1935 301.225 32.1716 301.459 32.1285C301.75 32.0717 302.035 31.9928 302.312 31.8927C302.776 31.724 303.212 31.4938 303.606 31.2093C303.996 30.9295 304.336 30.5942 304.615 30.2155C304.892 29.8275 305.105 29.4031 305.25 28.9561C305.4 28.4929 305.476 28.0111 305.475 27.5266C305.482 26.6026 305.197 25.6974 304.656 24.9263C304.115 24.1551 303.342 23.5529 302.436 23.1964C301.821 22.9531 301.159 22.8302 300.491 22.8353H295.511V39.1655H292.948V20.4209H300.472C301.493 20.4156 302.504 20.6055 303.445 20.979C305.262 21.6906 306.708 23.0469 307.47 24.7542C307.863 25.6315 308.064 26.5745 308.06 27.5266C308.061 28.2092 307.954 28.888 307.743 29.541C307.538 30.1782 307.242 30.7865 306.864 31.3495C306.486 31.9039 306.028 32.4061 305.503 32.8417C305.074 33.2 304.603 33.5104 304.098 33.7669L308.374 39.1386L305.135 39.1655Z" fill="white"/>
<path d="M312.235 39.1655V36.7541H318.506V22.8353H312.235V20.4239H327.337V22.8353H321.069V36.7541H327.337V39.1655H312.235Z" fill="white"/>
<path d="M331.524 39.1655V20.4239H346.626V22.8353H334.087V28.589H344.216V31.0004H334.087V36.7541H346.626V39.1655H331.524Z" fill="white"/>
<path d="M353.377 26.5985V39.1655H350.813V19.9464L363.353 32.9909V20.4239H365.916V39.643L353.377 26.5985Z" fill="white"/>
<path d="M377.653 39.1655C376.642 39.1709 375.64 38.982 374.709 38.6104C372.895 37.8986 371.453 36.5419 370.696 34.8352C370.3 33.9586 370.098 33.0152 370.103 32.0628V27.5266C370.098 26.5741 370.3 25.6307 370.696 24.7542C371.455 23.0457 372.901 21.6888 374.719 20.979C375.651 20.6109 376.652 20.4213 377.664 20.4213C378.675 20.4213 379.676 20.6109 380.609 20.979C382.421 21.6932 383.863 23.0491 384.622 24.7542C385.018 25.6308 385.219 26.5741 385.215 27.5266V27.825H382.649V27.5266C382.654 26.8964 382.522 26.272 382.262 25.6912C381.759 24.5654 380.807 23.6698 379.61 23.1963C378.992 22.9526 378.329 22.8298 377.659 22.8352C376.998 22.8316 376.343 22.9576 375.737 23.2053C374.538 23.6908 373.584 24.5902 373.069 25.7181C372.805 26.2884 372.67 26.9044 372.673 27.5266V32.0628C372.668 32.6926 372.798 33.3169 373.056 33.8981C373.559 35.0251 374.513 35.921 375.711 36.393C376.328 36.6353 376.991 36.7581 377.659 36.7541C378.32 36.7569 378.975 36.6341 379.584 36.393C380.177 36.1574 380.715 35.817 381.171 35.3903C381.626 34.9607 381.992 34.4545 382.249 33.8981C382.515 33.3199 382.65 32.6958 382.646 32.0658V31.7673H385.209V32.0658C385.211 33.001 385.016 33.9274 384.635 34.7911C384.254 35.6549 383.694 36.4388 382.988 37.0973C382.296 37.7398 381.481 38.2541 380.587 38.6134C379.659 38.9848 378.661 39.1728 377.653 39.1655Z" fill="white"/>
<path d="M389.393 39.1655V20.4239H404.495V22.8353H391.956V28.589H402.081V31.0004H391.956V36.7541H404.495V39.1655H389.393Z" fill="white"/>
<path d="M61.0612 24.5035C61.0594 28.3942 59.8825 32.2043 57.6676 35.4899C55.4527 38.7754 52.291 41.4012 48.5509 43.0613C44.8108 44.7214 40.6463 45.3474 36.5425 44.8663C32.4388 44.3853 28.5649 42.817 25.3721 40.3443C28.1254 38.8521 30.9486 37.2436 33.7622 35.6082L33.9113 35.6708C35.8823 36.4739 38.0343 36.8039 40.1743 36.6312C42.3143 36.4586 44.3752 35.7886 46.1721 34.6816C47.9689 33.5745 49.4454 32.065 50.469 30.2885C51.4926 28.512 52.0312 26.5242 52.0366 24.5035C52.0366 24.4528 52.0366 24.405 52.0366 24.3543C54.8915 22.4801 57.648 20.6358 60.2238 18.8422C60.7817 20.6834 61.0636 22.5889 61.0612 24.5035Z" fill="white"/>
<path d="M58.4949 14.8223C58.3902 14.8999 58.2855 14.9835 58.1776 15.0641C57.9207 15.261 57.6574 15.458 57.391 15.6609C57.1626 15.273 56.1824 13.748 55.9064 13.3839C53.055 9.60944 48.8514 6.93007 44.0682 5.83826C39.285 4.74645 34.2436 5.31558 29.8708 7.44102C25.4979 9.56647 22.0874 13.1054 20.2661 17.4074C18.4448 21.7093 18.3351 26.4852 19.9572 30.8571C20.4423 32.1003 21.0475 33.2991 21.7653 34.4383C22.2369 35.1906 22.7538 35.9169 23.3132 36.6139C23.1523 36.7355 22.9839 36.8481 22.8089 36.9511C22.6049 37.0694 22.393 37.1751 22.1745 37.2674C21.5962 36.5858 21.0664 35.869 20.5884 35.1217C17.6133 30.5718 16.64 25.1102 17.8754 19.8962C19.1107 14.6822 22.4573 10.1265 27.2048 7.19614C31.9522 4.26576 37.7267 3.19149 43.3023 4.20137C48.878 5.21125 53.8157 8.22577 57.0674 12.605C57.5933 13.3145 58.0701 14.0552 58.4949 14.8223Z" fill="white"/>
<path d="M60.8644 16.8845C55.5004 20.6626 49.1911 24.8258 42.3394 29.0546C35.5416 33.2565 29.0166 37.0227 23.2371 40.1354C10.7454 46.865 1.67959 50.5566 0.610596 49.0287C-0.458397 47.5007 6.66611 41.2157 18.0761 33.158C18.3426 33.731 18.6344 34.295 18.9548 34.8412C14.4631 38.3657 11.9254 40.9173 12.4742 41.6992C13.023 42.481 16.5662 41.3022 21.8541 38.7685C27.0943 36.2557 34.0444 32.4089 41.4766 27.8191C48.9754 23.1874 55.5353 18.6781 60.0745 15.1387C64.6138 11.5992 67.0848 9.07749 66.5424 8.30157C66 7.52564 62.5614 8.65969 57.4131 11.1128C57.0008 10.6204 56.5694 10.1429 56.1126 9.68331C68.433 3.06706 77.3497 -0.543972 78.406 0.972066C79.4623 2.4881 72.3188 8.81786 60.8644 16.8845Z" fill="white"/>
<path d="M51.1167 19.9763C47.9288 22.1548 44.4046 24.4527 40.7123 26.7208C37.02 28.9889 33.315 31.1794 29.8891 33.0804C28.5337 31.7982 27.4985 30.2483 26.8585 28.5432C26.2185 26.838 25.9898 25.0202 26.1888 23.2216C26.3878 21.423 27.0097 19.6885 28.0093 18.144C29.0089 16.5994 30.3613 15.2834 31.9683 14.2913C33.5754 13.2993 35.3969 12.656 37.3009 12.4081C39.2049 12.1602 41.1436 12.314 42.9767 12.8582C44.8097 13.4024 46.4911 14.3234 47.899 15.5545C49.3068 16.7857 50.406 18.2961 51.1167 19.9763Z" fill="white"/>
</svg>
