<svg xmlns="http://www.w3.org/2000/svg" viewBox="0 0 245.91 163.33"><defs><style>.cls-1{fill:#fff;}</style></defs><title>logo-blanco</title><g id="Capa_2" data-name="Capa 2"><g id="logo-blanco"><g id="Logo"><path class="cls-1" d="M190.9,80A68.79,68.79,0,0,1,78.39,133.08c8.68-5,17.58-10.39,26.45-15.87l.47.21A40.89,40.89,0,0,0,162.45,80v0c0-.17,0-.33,0-.5,9-6.28,17.69-12.46,25.81-18.47A68.9,68.9,0,0,1,190.9,80Z"/><path class="cls-1" d="M182.81,47.56c-.33.26-.66.54-1,.81-.81.66-1.64,1.32-2.48,2-.72-1.3-3.81-6.41-4.68-7.63A64.42,64.42,0,0,0,61.32,101.29a72.62,72.62,0,0,0,5.7,12,77.07,77.07,0,0,0,4.88,7.29,16.57,16.57,0,0,1-1.59,1.13,17.41,17.41,0,0,1-2,1.06,66.5,66.5,0,0,1-5-7.19,68.8,68.8,0,0,1,115-75.45A67.57,67.57,0,0,1,182.81,47.56Z"/><path class="cls-1" d="M190.28,54.47c-16.91,12.66-36.8,26.61-58.4,40.78-21.43,14.08-42,26.7-60.22,37.13C32.28,154.93,3.7,167.3.33,162.18S19.42,136,55.39,109c.84,1.92,1.76,3.81,2.77,5.64C44,126.45,36,135,37.73,137.62s12.9-1.33,29.57-9.82c16.52-8.42,38.43-21.31,61.86-36.69,23.64-15.52,44.32-30.63,58.63-42.49s22.1-20.31,20.39-22.91-12.55,1.2-28.78,9.42c-1.3-1.65-2.66-3.25-4.1-4.79C214.14,8.17,242.25-3.93,245.58,1.15S226.39,27.44,190.28,54.47Z"/><path class="cls-1" d="M159.55,64.83c-10.05,7.3-21.16,15-32.8,22.6s-23.32,14.94-34.12,21.31a40.85,40.85,0,1,1,66.92-43.91Z"/></g></g></g></svg>